<?xml version="1.0" encoding="utf-8"?>
<!-- Generator: Adobe Illustrator 27.5.0, SVG Export Plug-In . SVG Version: 6.00 Build 0)  -->
<svg version="1.1" id="Camada_1" xmlns="http://www.w3.org/2000/svg" xmlns:xlink="http://www.w3.org/1999/xlink" x="0px" y="0px"
	 viewBox="0 0 40 40" style="enable-background:new 0 0 40 40;" xml:space="preserve">
<style type="text/css">
	.st0{fill:#9E6425;}
	.st1{fill:#FFFFFF;}
</style>
<rect x="0" y="0" class="st0" width="40" height="40"/>
<g>
	<path class="st1" d="M3.98,7.24C4,7.2,4.03,7.17,4.03,7.13c0.3-1.28,1.23-2.06,2.55-2.12c0.5-0.02,1-0.01,1.5,0
		c0.36,0.01,0.53,0.17,0.53,0.47c0,0.31-0.17,0.46-0.54,0.46c-0.45,0.01-0.9,0-1.34,0C5.61,5.95,4.92,6.64,4.92,7.76
		c0,4.71,0,9.43,0,14.14c0,0.1,0,0.2,0,0.34c0.15,0,0.26,0,0.37,0c8.08,0,16.16,0,24.24,0.01c0.31,0,0.42-0.07,0.4-0.39
		c-0.03-0.65-0.01-1.31-0.01-2c-0.17,0-0.3,0-0.44,0c-2.61,0-5.21,0-7.82,0c-0.67,0-0.77-0.11-0.77-0.79c0-2.41,0-4.82,0-7.23
		c0-0.59,0.13-0.72,0.72-0.72c3.11,0,6.21,0,9.32,0c0.55,0,0.69,0.14,0.69,0.68c0,2.2,0,4.4,0,6.6c0,0.2,0.06,0.32,0.22,0.44
		c0.62,0.45,1.24,0.91,1.9,1.4c0.01-0.16,0.02-0.26,0.02-0.35c0-4.03,0-8.05,0-12.08c0-1.18-0.68-1.86-1.87-1.86
		c-6.92,0-13.85,0-20.77,0c-0.13,0-0.25,0-0.37-0.01c-0.25-0.03-0.37-0.18-0.38-0.42c-0.01-0.25,0.09-0.43,0.34-0.48
		c0.11-0.02,0.23-0.02,0.34-0.02c6.94,0,13.89,0,20.83,0c1.72,0,2.82,1.1,2.82,2.81c0,4.24,0,8.49-0.01,12.73
		c0,0.28,0.06,0.47,0.3,0.62c0.26,0.16,0.49,0.35,0.73,0.54c0.25,0.2,0.35,0.46,0.26,0.78c-0.1,0.32-0.32,0.48-0.65,0.49
		c-0.2,0.01-0.39,0-0.64,0c0,0.14,0,0.27,0,0.39c-0.01,0.93,0.03,1.86-0.06,2.78c-0.12,1.22-1.18,2.16-2.4,2.19
		c-1.63,0.04-3.25,0.02-4.88,0.02c-1.48,0-2.96,0-4.44,0c-0.12,0-0.25,0-0.39,0c0,1.17,0,2.31,0,3.5c0.34,0,0.67,0,0.99,0
		c0.52,0,1.04-0.01,1.56,0c0.8,0.03,1.33,0.52,1.46,1.32c0.12,0.72-0.25,1.48-0.88,1.69c-0.31,0.11-0.67,0.12-1.01,0.12
		c-0.28,0-0.42-0.22-0.4-0.49c0.02-0.27,0.17-0.41,0.44-0.42c0.11,0,0.23,0,0.34-0.01c0.4-0.03,0.62-0.26,0.61-0.65
		c-0.01-0.38-0.23-0.61-0.63-0.62c-0.44-0.01-0.88,0-1.31,0c-3.31,0-6.61,0-9.92,0c-0.54,0-0.83,0.29-0.75,0.75
		c0.05,0.29,0.21,0.47,0.51,0.51c0.12,0.02,0.25,0.02,0.37,0.02c2.63,0,5.25,0,7.88,0c0.41,0,0.58,0.13,0.59,0.44
		c0.01,0.27-0.12,0.44-0.39,0.48C21.9,35,21.81,35,21.71,35c-2.65,0-5.3,0-7.94,0c-0.89,0-1.43-0.4-1.61-1.18
		c-0.26-1.06,0.43-1.96,1.53-1.97c0.83-0.01,1.67,0,2.53,0c0-1.16,0-2.3,0-3.5c-0.12,0-0.25,0-0.38,0c-2.88,0-5.76-0.05-8.63,0.02
		c-1.7,0.04-2.83-0.67-3.21-2.23C3.98,19.84,3.98,13.54,3.98,7.24z M33.74,23c-0.25,0-0.47,0.02-0.69,0
		c-0.25-0.03-0.39,0.08-0.53,0.28c-0.41,0.59-0.83,1.17-1.26,1.75c-0.24,0.33-0.54,0.43-0.87,0.29c-0.3-0.12-0.45-0.35-0.45-0.68
		c0-0.48,0-0.97,0-1.45c-8.37,0-16.68,0-25.01,0c0,0.93-0.04,1.83,0.01,2.73c0.04,0.67,0.44,1.14,1.08,1.37
		c0.26,0.09,0.55,0.11,0.83,0.11c8.32,0.01,16.64,0,24.96,0c0.1,0,0.21,0,0.31,0c0.85-0.04,1.54-0.61,1.6-1.46
		C33.79,24.98,33.74,24.01,33.74,23z M29.91,18.89c0.01-0.38,0.14-0.68,0.51-0.76c0.23-0.05,0.27-0.15,0.27-0.36
		c-0.01-1.8,0-3.61,0-5.41c0-0.1-0.01-0.2-0.01-0.29c-2.96,0-5.89,0-8.81,0c0,2.28,0,4.54,0,6.81
		C24.54,18.89,27.2,18.89,29.91,18.89z M17.19,28.36c0,1.17,0,2.31,0,3.47c1.46,0,2.9,0,4.35,0c0-1.16,0-2.31,0-3.47
		C20.09,28.36,18.66,28.36,17.19,28.36z M30.88,19.29c0,1.55,0,3.04,0,4.61c0.33-0.45,0.64-0.81,0.89-1.21
		c0.31-0.52,0.73-0.72,1.32-0.66c0.46,0.04,0.93,0.01,1.39,0.01c0.01-0.02,0.01-0.05,0.02-0.07C33.31,21.09,32.12,20.21,30.88,19.29
		z"/>
	<path class="st1" d="M19.2,8.53c3.9,0,7.8,0,11.7,0c0.49,0,0.71,0.14,0.71,0.46c0.01,0.32-0.23,0.48-0.73,0.48
		c-7.8,0-15.6,0-23.39,0c-0.51,0-0.71-0.14-0.7-0.5c0.01-0.25,0.14-0.41,0.4-0.43c0.11-0.01,0.23-0.01,0.34-0.01
		C11.42,8.53,15.31,8.53,19.2,8.53z"/>
	<path class="st1" d="M13.08,17.25c-1.88,0-3.75,0-5.63,0c-0.09,0-0.19,0.01-0.28-0.01c-0.25-0.04-0.38-0.2-0.38-0.46
		c0-0.25,0.12-0.41,0.37-0.46c0.08-0.02,0.17-0.01,0.25-0.01c3.78,0,7.56,0,11.35,0c0.08,0,0.17-0.01,0.25,0.01
		c0.25,0.05,0.37,0.22,0.37,0.47c-0.01,0.25-0.14,0.42-0.39,0.45c-0.22,0.02-0.44,0.01-0.66,0.01
		C16.58,17.25,14.83,17.25,13.08,17.25z"/>
	<path class="st1" d="M13.07,12.06c-1.87,0-3.73,0-5.6,0c-0.1,0-0.21,0.01-0.31-0.01c-0.24-0.04-0.36-0.19-0.37-0.43
		c-0.01-0.25,0.1-0.42,0.35-0.49c0.07-0.02,0.14-0.01,0.22-0.01c3.81,0,7.63,0,11.44,0c0.04,0,0.08,0,0.12,0
		c0.29,0.02,0.46,0.21,0.45,0.49c-0.01,0.27-0.17,0.44-0.46,0.45c-0.4,0.01-0.79,0-1.19,0C16.18,12.06,14.62,12.06,13.07,12.06z"/>
	<path class="st1" d="M13.09,18.91c1.9,0,3.79,0,5.69,0c0.42,0,0.6,0.14,0.6,0.47c0,0.25-0.12,0.42-0.38,0.45
		c-0.12,0.02-0.25,0.02-0.37,0.02c-3.7,0-7.4,0-11.1,0c-0.13,0-0.27,0-0.4-0.03c-0.24-0.05-0.34-0.23-0.33-0.46
		c0.01-0.24,0.12-0.4,0.36-0.43c0.11-0.02,0.23-0.01,0.34-0.01C9.36,18.91,11.23,18.91,13.09,18.91z"/>
	<path class="st1" d="M13.1,13.72c1.9,0,3.79,0,5.69,0c0.4,0,0.58,0.14,0.59,0.45c0.01,0.26-0.11,0.44-0.39,0.48
		c-0.11,0.02-0.23,0.01-0.34,0.01c-3.71,0-7.42,0-11.13,0c-0.13,0-0.27,0-0.4-0.03c-0.24-0.05-0.33-0.24-0.32-0.47
		c0.01-0.22,0.11-0.38,0.34-0.42c0.12-0.02,0.25-0.02,0.37-0.02C9.37,13.72,11.24,13.72,13.1,13.72z"/>
	<path class="st1" d="M27.74,13.71c0.25,0.02,0.5,0.01,0.74,0.07c0.87,0.2,1.41,0.98,1.34,1.88c-0.06,0.83-0.77,1.51-1.63,1.57
		c-0.32,0.02-0.65,0.02-0.97,0c-0.31-0.01-0.48-0.19-0.48-0.5c-0.01-0.83-0.01-1.66,0-2.5c0-0.35,0.17-0.5,0.53-0.51
		c0.16-0.01,0.31,0,0.47,0C27.74,13.72,27.74,13.72,27.74,13.71z M27.7,16.29c0.47,0.04,0.86,0,1.09-0.42
		c0.16-0.29,0.14-0.58-0.05-0.85c-0.26-0.37-0.63-0.38-1.04-0.33C27.7,15.23,27.7,15.75,27.7,16.29z"/>
	<path class="st1" d="M24.37,16.89c-0.19,0-0.34-0.02-0.48,0.01c-0.14,0.03-0.28,0.09-0.38,0.18c-0.19,0.17-0.38,0.2-0.6,0.08
		c-0.21-0.12-0.3-0.32-0.2-0.53c0.39-0.87,0.79-1.75,1.21-2.61c0.17-0.35,0.64-0.35,0.81,0c0.42,0.85,0.81,1.71,1.2,2.58
		c0.09,0.21,0.05,0.45-0.16,0.55c-0.15,0.07-0.45,0.09-0.5,0.01C25.01,16.79,24.65,16.91,24.37,16.89z M24.32,15.36
		c-0.1,0.22-0.18,0.38-0.26,0.56c0.18,0,0.34,0,0.52,0C24.5,15.73,24.43,15.58,24.32,15.36z"/>
</g>
</svg>
